<svg width="349" height="217" viewBox="0 0 349 217" fill="none" xmlns="http://www.w3.org/2000/svg">
<path d="M0 0H348.258V216.029H0V0Z" fill="#12B488"/>
<path d="M142 144L134 136H214L206 144H142ZM138 132C138.4 130.8 138.933 129.667 139.6 128.6C140.267 127.533 141.067 126.533 142 125.6V96H138V90H142V87H138V81H142V78H138V72H166C168.2 72 170.083 72.7833 171.65 74.35C173.217 75.9167 174 77.8 174 80V81H210V87H174V88C174 90.2 173.217 92.0833 171.65 93.65C170.083 95.2167 168.2 96 166 96H158V120.4C158.933 120.533 159.867 120.733 160.8 121C161.733 121.267 162.6 121.667 163.4 122.2C165.133 117.867 167.9 114.417 171.7 111.85C175.5 109.283 179.7 108 184.3 108C190.3 108 195.417 110.05 199.65 114.15C203.883 118.25 206 123.267 206 129.2V132H138ZM171.4 124H196.6C195.467 121.6 193.8 119.667 191.6 118.2C189.4 116.733 186.967 116 184.3 116C181.5 116 178.933 116.7 176.6 118.1C174.267 119.5 172.533 121.467 171.4 124ZM158 81H166V78H158V81ZM158 90H166V87H158V90ZM148 81H152V78H148V81ZM148 90H152V87H148V90ZM148 121.4C148.667 121.067 149.317 120.817 149.95 120.65C150.583 120.483 151.267 120.333 152 120.2V96H148V121.4Z" fill="#E8EAED"/>
</svg>
